<mxfile host="app.diagrams.net" modified="2021-01-08T10:44:47.481Z" agent="5.0 (X11; Linux x86_64) AppleWebKit/537.36 (KHTML, like Gecko) Chrome/87.0.4280.88 Safari/537.36" etag="Q3V1q__QDlmircAtZY1r" version="14.1.8" type="github" pages="2">
  <diagram id="ToHrhrLqRsKoYTBExhkf" name="Page-1">
    <mxGraphModel dx="868" dy="1590" grid="1" gridSize="10" guides="1" tooltips="1" connect="1" arrows="1" fold="1" page="1" pageScale="1" pageWidth="850" pageHeight="1100" math="0" shadow="0">
      <root>
        <mxCell id="0" />
        <mxCell id="1" parent="0" />
        <mxCell id="h6RY7vYVsL6nB2M1qgdw-1" value="START&lt;br&gt;Run algorithm.py" style="rounded=1;whiteSpace=wrap;html=1;" parent="1" vertex="1">
          <mxGeometry x="358" y="-230" width="120" height="60" as="geometry" />
        </mxCell>
        <mxCell id="h6RY7vYVsL6nB2M1qgdw-2" value="CascadeClassifier, Eye &amp;amp; Mouth region extraction" style="rounded=0;whiteSpace=wrap;html=1;" parent="1" vertex="1">
          <mxGeometry x="290" y="110" width="120" height="60" as="geometry" />
        </mxCell>
        <mxCell id="h6RY7vYVsL6nB2M1qgdw-3" value="Compute Mouth Aspect Ratio (MAR)" style="rounded=0;whiteSpace=wrap;html=1;" parent="1" vertex="1">
          <mxGeometry x="570" y="170" width="120" height="60" as="geometry" />
        </mxCell>
        <mxCell id="h6RY7vYVsL6nB2M1qgdw-4" value="Compute Eye Aspect Ratio (EAR)" style="rounded=0;whiteSpace=wrap;html=1;" parent="1" vertex="1">
          <mxGeometry x="146" y="180" width="120" height="60" as="geometry" />
        </mxCell>
        <mxCell id="h6RY7vYVsL6nB2M1qgdw-5" value="" style="rhombus;whiteSpace=wrap;html=1;" parent="1" vertex="1">
          <mxGeometry x="130" y="280" width="140" height="140" as="geometry" />
        </mxCell>
        <mxCell id="h6RY7vYVsL6nB2M1qgdw-7" value="" style="rhombus;whiteSpace=wrap;html=1;" parent="1" vertex="1">
          <mxGeometry x="560" y="280" width="140" height="140" as="geometry" />
        </mxCell>
        <mxCell id="h6RY7vYVsL6nB2M1qgdw-8" value="" style="rounded=0;whiteSpace=wrap;html=1;" parent="1" vertex="1">
          <mxGeometry x="355" y="320" width="120" height="60" as="geometry" />
        </mxCell>
        <mxCell id="h6RY7vYVsL6nB2M1qgdw-9" value="" style="rhombus;whiteSpace=wrap;html=1;" parent="1" vertex="1">
          <mxGeometry x="130" y="600" width="140" height="140" as="geometry" />
        </mxCell>
        <mxCell id="h6RY7vYVsL6nB2M1qgdw-10" value="" style="rhombus;whiteSpace=wrap;html=1;" parent="1" vertex="1">
          <mxGeometry x="560" y="450" width="140" height="140" as="geometry" />
        </mxCell>
        <mxCell id="h6RY7vYVsL6nB2M1qgdw-11" value="" style="rhombus;whiteSpace=wrap;html=1;" parent="1" vertex="1">
          <mxGeometry x="560" y="619" width="140" height="140" as="geometry" />
        </mxCell>
        <mxCell id="h6RY7vYVsL6nB2M1qgdw-12" value="POST(Drowsiness Status True)" style="rounded=0;whiteSpace=wrap;html=1;" parent="1" vertex="1">
          <mxGeometry x="370" y="730" width="146" height="58" as="geometry" />
        </mxCell>
        <mxCell id="h6RY7vYVsL6nB2M1qgdw-17" value="&lt;span&gt;IF&lt;/span&gt;&lt;br&gt;&lt;span&gt;&amp;nbsp;MAR&amp;lt;Threshold MAR&lt;/span&gt;" style="text;html=1;strokeColor=none;fillColor=none;align=center;verticalAlign=middle;whiteSpace=wrap;rounded=0;" parent="1" vertex="1">
          <mxGeometry x="580" y="330" width="100" height="40" as="geometry" />
        </mxCell>
        <mxCell id="h6RY7vYVsL6nB2M1qgdw-18" value="" style="endArrow=classic;html=1;exitX=0.5;exitY=1;exitDx=0;exitDy=0;entryX=0.5;entryY=0;entryDx=0;entryDy=0;" parent="1" source="h6RY7vYVsL6nB2M1qgdw-1" target="h6RY7vYVsL6nB2M1qgdw-54" edge="1">
          <mxGeometry width="50" height="50" relative="1" as="geometry">
            <mxPoint x="480" y="140" as="sourcePoint" />
            <mxPoint x="425" y="-50" as="targetPoint" />
          </mxGeometry>
        </mxCell>
        <mxCell id="h6RY7vYVsL6nB2M1qgdw-21" value="" style="endArrow=classic;html=1;entryX=0;entryY=0.5;entryDx=0;entryDy=0;exitX=1;exitY=0.5;exitDx=0;exitDy=0;" parent="1" source="h6RY7vYVsL6nB2M1qgdw-5" target="h6RY7vYVsL6nB2M1qgdw-8" edge="1">
          <mxGeometry width="50" height="50" relative="1" as="geometry">
            <mxPoint x="380" y="330" as="sourcePoint" />
            <mxPoint x="430" y="280" as="targetPoint" />
          </mxGeometry>
        </mxCell>
        <mxCell id="h6RY7vYVsL6nB2M1qgdw-22" value="" style="endArrow=classic;html=1;entryX=1;entryY=0.5;entryDx=0;entryDy=0;exitX=0;exitY=0.5;exitDx=0;exitDy=0;" parent="1" source="h6RY7vYVsL6nB2M1qgdw-7" target="h6RY7vYVsL6nB2M1qgdw-8" edge="1">
          <mxGeometry width="50" height="50" relative="1" as="geometry">
            <mxPoint x="510" y="320" as="sourcePoint" />
            <mxPoint x="365" y="360" as="targetPoint" />
          </mxGeometry>
        </mxCell>
        <mxCell id="h6RY7vYVsL6nB2M1qgdw-23" value="&lt;span&gt;IF&lt;/span&gt;&lt;br&gt;&lt;span&gt;&amp;nbsp;EAR&amp;lt;Threshold EAR&lt;/span&gt;" style="text;html=1;strokeColor=none;fillColor=none;align=center;verticalAlign=middle;whiteSpace=wrap;rounded=0;" parent="1" vertex="1">
          <mxGeometry x="150" y="330" width="100" height="40" as="geometry" />
        </mxCell>
        <mxCell id="h6RY7vYVsL6nB2M1qgdw-24" value="" style="endArrow=classic;html=1;exitX=0.45;exitY=1.017;exitDx=0;exitDy=0;exitPerimeter=0;" parent="1" source="h6RY7vYVsL6nB2M1qgdw-4" target="h6RY7vYVsL6nB2M1qgdw-5" edge="1">
          <mxGeometry width="50" height="50" relative="1" as="geometry">
            <mxPoint x="180" y="290" as="sourcePoint" />
            <mxPoint x="230" y="240" as="targetPoint" />
          </mxGeometry>
        </mxCell>
        <mxCell id="h6RY7vYVsL6nB2M1qgdw-25" value="" style="endArrow=classic;html=1;exitX=0.5;exitY=1;exitDx=0;exitDy=0;entryX=0.5;entryY=0;entryDx=0;entryDy=0;" parent="1" source="h6RY7vYVsL6nB2M1qgdw-3" target="h6RY7vYVsL6nB2M1qgdw-7" edge="1">
          <mxGeometry width="50" height="50" relative="1" as="geometry">
            <mxPoint x="210" y="241.01999999999998" as="sourcePoint" />
            <mxPoint x="210" y="290" as="targetPoint" />
          </mxGeometry>
        </mxCell>
        <mxCell id="h6RY7vYVsL6nB2M1qgdw-26" value="FALSE" style="text;html=1;strokeColor=none;fillColor=none;align=center;verticalAlign=middle;whiteSpace=wrap;rounded=0;" parent="1" vertex="1">
          <mxGeometry x="280" y="320" width="40" height="20" as="geometry" />
        </mxCell>
        <mxCell id="h6RY7vYVsL6nB2M1qgdw-27" value="FALSE" style="text;html=1;strokeColor=none;fillColor=none;align=center;verticalAlign=middle;whiteSpace=wrap;rounded=0;" parent="1" vertex="1">
          <mxGeometry x="510" y="320" width="40" height="20" as="geometry" />
        </mxCell>
        <mxCell id="h6RY7vYVsL6nB2M1qgdw-28" value="" style="endArrow=classic;html=1;exitX=0.5;exitY=1;exitDx=0;exitDy=0;entryX=0.5;entryY=0;entryDx=0;entryDy=0;" parent="1" source="h6RY7vYVsL6nB2M1qgdw-5" target="h6RY7vYVsL6nB2M1qgdw-9" edge="1">
          <mxGeometry width="50" height="50" relative="1" as="geometry">
            <mxPoint x="170" y="470" as="sourcePoint" />
            <mxPoint x="220" y="420" as="targetPoint" />
          </mxGeometry>
        </mxCell>
        <mxCell id="h6RY7vYVsL6nB2M1qgdw-29" value="" style="endArrow=classic;html=1;exitX=0.5;exitY=1;exitDx=0;exitDy=0;" parent="1" source="h6RY7vYVsL6nB2M1qgdw-7" target="h6RY7vYVsL6nB2M1qgdw-10" edge="1">
          <mxGeometry width="50" height="50" relative="1" as="geometry">
            <mxPoint x="210" y="430" as="sourcePoint" />
            <mxPoint x="210" y="481" as="targetPoint" />
          </mxGeometry>
        </mxCell>
        <mxCell id="h6RY7vYVsL6nB2M1qgdw-30" value="TRUE" style="text;html=1;strokeColor=none;fillColor=none;align=center;verticalAlign=middle;whiteSpace=wrap;rounded=0;" parent="1" vertex="1">
          <mxGeometry x="210" y="471" width="40" height="20" as="geometry" />
        </mxCell>
        <mxCell id="h6RY7vYVsL6nB2M1qgdw-31" value="TRUE" style="text;html=1;strokeColor=none;fillColor=none;align=center;verticalAlign=middle;whiteSpace=wrap;rounded=0;" parent="1" vertex="1">
          <mxGeometry x="580" y="417" width="40" height="30" as="geometry" />
        </mxCell>
        <mxCell id="h6RY7vYVsL6nB2M1qgdw-32" value="IF &lt;br&gt;EAR Frame count &amp;gt;&lt;br&gt;Threshold frame no." style="text;html=1;strokeColor=none;fillColor=none;align=center;verticalAlign=middle;whiteSpace=wrap;rounded=0;" parent="1" vertex="1">
          <mxGeometry x="150" y="639" width="100" height="62" as="geometry" />
        </mxCell>
        <mxCell id="h6RY7vYVsL6nB2M1qgdw-33" value="IF &lt;br&gt;MAR Frame count &amp;gt;&lt;br&gt;Threshold frame no.&amp;nbsp;" style="text;html=1;strokeColor=none;fillColor=none;align=center;verticalAlign=middle;whiteSpace=wrap;rounded=0;" parent="1" vertex="1">
          <mxGeometry x="580" y="499" width="100" height="62" as="geometry" />
        </mxCell>
        <mxCell id="h6RY7vYVsL6nB2M1qgdw-34" value="" style="endArrow=classic;html=1;exitX=1;exitY=0.5;exitDx=0;exitDy=0;" parent="1" source="h6RY7vYVsL6nB2M1qgdw-9" edge="1">
          <mxGeometry width="50" height="50" relative="1" as="geometry">
            <mxPoint x="280" y="541" as="sourcePoint" />
            <mxPoint x="370" y="380" as="targetPoint" />
            <Array as="points">
              <mxPoint x="370" y="670" />
            </Array>
          </mxGeometry>
        </mxCell>
        <mxCell id="h6RY7vYVsL6nB2M1qgdw-35" value="" style="endArrow=classic;html=1;exitX=0;exitY=0.5;exitDx=0;exitDy=0;entryX=0.867;entryY=1.017;entryDx=0;entryDy=0;entryPerimeter=0;" parent="1" source="h6RY7vYVsL6nB2M1qgdw-10" target="h6RY7vYVsL6nB2M1qgdw-8" edge="1">
          <mxGeometry width="50" height="50" relative="1" as="geometry">
            <mxPoint x="430" y="500" as="sourcePoint" />
            <mxPoint x="520" y="350" as="targetPoint" />
            <Array as="points">
              <mxPoint x="459" y="520" />
            </Array>
          </mxGeometry>
        </mxCell>
        <mxCell id="h6RY7vYVsL6nB2M1qgdw-36" value="FALSE" style="text;html=1;strokeColor=none;fillColor=none;align=center;verticalAlign=middle;whiteSpace=wrap;rounded=0;" parent="1" vertex="1">
          <mxGeometry x="275" y="641" width="40" height="20" as="geometry" />
        </mxCell>
        <mxCell id="h6RY7vYVsL6nB2M1qgdw-38" value="POST(Drowsiness Status False)" style="text;html=1;strokeColor=none;fillColor=none;align=center;verticalAlign=middle;whiteSpace=wrap;rounded=0;" parent="1" vertex="1">
          <mxGeometry x="370" y="350" width="90" as="geometry" />
        </mxCell>
        <mxCell id="h6RY7vYVsL6nB2M1qgdw-40" value="" style="endArrow=classic;html=1;exitX=0.5;exitY=1;exitDx=0;exitDy=0;" parent="1" edge="1">
          <mxGeometry width="50" height="50" relative="1" as="geometry">
            <mxPoint x="629.5" y="590" as="sourcePoint" />
            <mxPoint x="629.5" y="620" as="targetPoint" />
          </mxGeometry>
        </mxCell>
        <mxCell id="h6RY7vYVsL6nB2M1qgdw-41" value="TRUE" style="text;html=1;strokeColor=none;fillColor=none;align=center;verticalAlign=middle;whiteSpace=wrap;rounded=0;" parent="1" vertex="1">
          <mxGeometry x="580" y="589" width="40" height="30" as="geometry" />
        </mxCell>
        <mxCell id="h6RY7vYVsL6nB2M1qgdw-42" value="FALSE" style="text;html=1;strokeColor=none;fillColor=none;align=center;verticalAlign=middle;whiteSpace=wrap;rounded=0;" parent="1" vertex="1">
          <mxGeometry x="520" y="491" width="40" height="20" as="geometry" />
        </mxCell>
        <mxCell id="h6RY7vYVsL6nB2M1qgdw-43" value="&lt;span&gt;IF&amp;nbsp; &lt;br&gt;Yawn count &lt;br&gt;&amp;gt;&amp;nbsp;&lt;/span&gt;&lt;br&gt;&lt;span&gt;Threshold yawn&lt;br&gt;&amp;nbsp;count no.&lt;/span&gt;" style="text;html=1;strokeColor=none;fillColor=none;align=center;verticalAlign=middle;whiteSpace=wrap;rounded=0;" parent="1" vertex="1">
          <mxGeometry x="580" y="641" width="100" height="88" as="geometry" />
        </mxCell>
        <mxCell id="h6RY7vYVsL6nB2M1qgdw-44" value="" style="endArrow=classic;html=1;exitX=0.5;exitY=1;exitDx=0;exitDy=0;entryX=0;entryY=0.5;entryDx=0;entryDy=0;" parent="1" source="h6RY7vYVsL6nB2M1qgdw-9" target="h6RY7vYVsL6nB2M1qgdw-12" edge="1">
          <mxGeometry width="50" height="50" relative="1" as="geometry">
            <mxPoint x="200" y="770" as="sourcePoint" />
            <mxPoint x="360" y="765" as="targetPoint" />
            <Array as="points">
              <mxPoint x="200" y="759" />
            </Array>
          </mxGeometry>
        </mxCell>
        <mxCell id="h6RY7vYVsL6nB2M1qgdw-47" value="" style="endArrow=classic;html=1;entryX=1;entryY=0.5;entryDx=0;entryDy=0;exitX=0.5;exitY=1;exitDx=0;exitDy=0;" parent="1" source="h6RY7vYVsL6nB2M1qgdw-11" target="h6RY7vYVsL6nB2M1qgdw-12" edge="1">
          <mxGeometry width="50" height="50" relative="1" as="geometry">
            <mxPoint x="590" y="840" as="sourcePoint" />
            <mxPoint x="640" y="790" as="targetPoint" />
          </mxGeometry>
        </mxCell>
        <mxCell id="h6RY7vYVsL6nB2M1qgdw-48" value="" style="endArrow=classic;html=1;exitX=0;exitY=0.5;exitDx=0;exitDy=0;entryX=0.45;entryY=0.017;entryDx=0;entryDy=0;entryPerimeter=0;" parent="1" source="h6RY7vYVsL6nB2M1qgdw-2" target="h6RY7vYVsL6nB2M1qgdw-4" edge="1">
          <mxGeometry width="50" height="50" relative="1" as="geometry">
            <mxPoint x="250" y="140" as="sourcePoint" />
            <mxPoint x="300" y="90" as="targetPoint" />
            <Array as="points">
              <mxPoint x="200" y="140" />
            </Array>
          </mxGeometry>
        </mxCell>
        <mxCell id="h6RY7vYVsL6nB2M1qgdw-49" value="" style="endArrow=classic;html=1;exitX=1;exitY=0.5;exitDx=0;exitDy=0;entryX=0.583;entryY=0;entryDx=0;entryDy=0;entryPerimeter=0;" parent="1" source="h6RY7vYVsL6nB2M1qgdw-2" target="h6RY7vYVsL6nB2M1qgdw-3" edge="1">
          <mxGeometry width="50" height="50" relative="1" as="geometry">
            <mxPoint x="610" y="150" as="sourcePoint" />
            <mxPoint x="660" y="100" as="targetPoint" />
            <Array as="points">
              <mxPoint x="640" y="140" />
            </Array>
          </mxGeometry>
        </mxCell>
        <mxCell id="h6RY7vYVsL6nB2M1qgdw-54" value="Video frame&lt;br&gt;&amp;nbsp;Capture" style="rounded=0;whiteSpace=wrap;html=1;" parent="1" vertex="1">
          <mxGeometry x="328" y="-140" width="180" height="60" as="geometry" />
        </mxCell>
        <mxCell id="h6RY7vYVsL6nB2M1qgdw-55" value="" style="endArrow=classic;html=1;entryX=0.575;entryY=0.017;entryDx=0;entryDy=0;entryPerimeter=0;" parent="1" target="h6RY7vYVsL6nB2M1qgdw-2" edge="1">
          <mxGeometry width="50" height="50" relative="1" as="geometry">
            <mxPoint x="359" y="50" as="sourcePoint" />
            <mxPoint x="421" y="108" as="targetPoint" />
          </mxGeometry>
        </mxCell>
        <mxCell id="h6RY7vYVsL6nB2M1qgdw-56" value="store drowsiness status&amp;nbsp;" style="shape=cylinder3;whiteSpace=wrap;html=1;boundedLbl=1;backgroundOutline=1;size=15;" parent="1" vertex="1">
          <mxGeometry x="381" y="520" width="85" height="80" as="geometry" />
        </mxCell>
        <mxCell id="h6RY7vYVsL6nB2M1qgdw-58" value="" style="endArrow=classic;html=1;exitX=0.377;exitY=-0.017;exitDx=0;exitDy=0;exitPerimeter=0;" parent="1" source="h6RY7vYVsL6nB2M1qgdw-12" target="h6RY7vYVsL6nB2M1qgdw-56" edge="1">
          <mxGeometry width="50" height="50" relative="1" as="geometry">
            <mxPoint x="419" y="729" as="sourcePoint" />
            <mxPoint x="520" y="810" as="targetPoint" />
          </mxGeometry>
        </mxCell>
        <mxCell id="h6RY7vYVsL6nB2M1qgdw-63" value="" style="endArrow=classic;html=1;entryX=0.611;entryY=1.05;entryDx=0;entryDy=0;entryPerimeter=0;" parent="1" edge="1">
          <mxGeometry width="50" height="50" relative="1" as="geometry">
            <mxPoint x="438" y="319" as="sourcePoint" />
            <mxPoint x="437.98" y="-80" as="targetPoint" />
          </mxGeometry>
        </mxCell>
        <mxCell id="h6RY7vYVsL6nB2M1qgdw-64" value="" style="endArrow=classic;html=1;entryX=0.933;entryY=0.983;entryDx=0;entryDy=0;entryPerimeter=0;exitX=0.87;exitY=-0.052;exitDx=0;exitDy=0;exitPerimeter=0;" parent="1" source="h6RY7vYVsL6nB2M1qgdw-12" target="h6RY7vYVsL6nB2M1qgdw-54" edge="1">
          <mxGeometry width="50" height="50" relative="1" as="geometry">
            <mxPoint x="496" y="720" as="sourcePoint" />
            <mxPoint x="496" y="230" as="targetPoint" />
          </mxGeometry>
        </mxCell>
        <mxCell id="h6RY7vYVsL6nB2M1qgdw-70" value="If Ctrl +C or &quot;q&quot; key" style="rhombus;whiteSpace=wrap;html=1;" parent="1" vertex="1">
          <mxGeometry x="290" y="-50" width="140" height="140" as="geometry" />
        </mxCell>
        <mxCell id="h6RY7vYVsL6nB2M1qgdw-71" value="" style="endArrow=classic;html=1;entryX=0.5;entryY=0;entryDx=0;entryDy=0;" parent="1" target="h6RY7vYVsL6nB2M1qgdw-70" edge="1">
          <mxGeometry width="50" height="50" relative="1" as="geometry">
            <mxPoint x="360" y="-81" as="sourcePoint" />
            <mxPoint x="410" y="-90" as="targetPoint" />
          </mxGeometry>
        </mxCell>
        <mxCell id="h6RY7vYVsL6nB2M1qgdw-75" value="STOP&amp;nbsp;&lt;br&gt;algorithm.py" style="rounded=1;whiteSpace=wrap;html=1;" parent="1" vertex="1">
          <mxGeometry x="550" y="-10" width="120" height="60" as="geometry" />
        </mxCell>
        <mxCell id="h6RY7vYVsL6nB2M1qgdw-76" value="" style="endArrow=classic;html=1;exitX=1;exitY=0.5;exitDx=0;exitDy=0;entryX=0;entryY=0.5;entryDx=0;entryDy=0;" parent="1" source="h6RY7vYVsL6nB2M1qgdw-70" target="h6RY7vYVsL6nB2M1qgdw-75" edge="1">
          <mxGeometry width="50" height="50" relative="1" as="geometry">
            <mxPoint x="460" y="50" as="sourcePoint" />
            <mxPoint x="510" as="targetPoint" />
          </mxGeometry>
        </mxCell>
        <mxCell id="h6RY7vYVsL6nB2M1qgdw-77" value="FALSE" style="text;html=1;strokeColor=none;fillColor=none;align=center;verticalAlign=middle;whiteSpace=wrap;rounded=0;" parent="1" vertex="1">
          <mxGeometry x="315" y="-20" width="40" height="220" as="geometry" />
        </mxCell>
        <mxCell id="h6RY7vYVsL6nB2M1qgdw-79" value="TRUE" style="text;html=1;strokeColor=none;fillColor=none;align=center;verticalAlign=middle;whiteSpace=wrap;rounded=0;" parent="1" vertex="1">
          <mxGeometry x="446.5" y="-9" width="34.5" height="37" as="geometry" />
        </mxCell>
        <mxCell id="h6RY7vYVsL6nB2M1qgdw-91" value="" style="endArrow=classic;html=1;" parent="1" edge="1">
          <mxGeometry width="50" height="50" relative="1" as="geometry">
            <mxPoint x="420" y="382" as="sourcePoint" />
            <mxPoint x="420" y="521" as="targetPoint" />
          </mxGeometry>
        </mxCell>
        <mxCell id="h6RY7vYVsL6nB2M1qgdw-92" value="TRUE" style="text;html=1;strokeColor=none;fillColor=none;align=center;verticalAlign=middle;whiteSpace=wrap;rounded=0;" parent="1" vertex="1">
          <mxGeometry x="260" y="730" width="40" height="20" as="geometry" />
        </mxCell>
        <mxCell id="h6RY7vYVsL6nB2M1qgdw-93" value="TRUE" style="text;html=1;strokeColor=none;fillColor=none;align=center;verticalAlign=middle;whiteSpace=wrap;rounded=0;" parent="1" vertex="1">
          <mxGeometry x="540" y="729" width="40" height="20" as="geometry" />
        </mxCell>
      </root>
    </mxGraphModel>
  </diagram>
  <diagram id="mjxHphZMn0FXmFxLm-BT" name="Page-2">
    <mxGraphModel dx="868" dy="490" grid="1" gridSize="10" guides="1" tooltips="1" connect="1" arrows="1" fold="1" page="1" pageScale="1" pageWidth="850" pageHeight="1100" math="0" shadow="0">
      <root>
        <mxCell id="GiDyyj_6k7mEWyfeC5JF-0" />
        <mxCell id="GiDyyj_6k7mEWyfeC5JF-1" parent="GiDyyj_6k7mEWyfeC5JF-0" />
      </root>
    </mxGraphModel>
  </diagram>
</mxfile>
